<?xml version="1.0" encoding="UTF-8" standalone="no"?>
<!-- Created with Inkscape (http://www.inkscape.org/) -->

<svg
   xmlns:dc="http://purl.org/dc/elements/1.1/"
   xmlns:cc="http://creativecommons.org/ns#"
   xmlns:rdf="http://www.w3.org/1999/02/22-rdf-syntax-ns#"
   xmlns:svg="http://www.w3.org/2000/svg"
   xmlns="http://www.w3.org/2000/svg"
   xmlns:sodipodi="http://sodipodi.sourceforge.net/DTD/sodipodi-0.dtd"
   xmlns:inkscape="http://www.inkscape.org/namespaces/inkscape"
   width="32in"
   height="18in"
   viewBox="0 0 812.80001 457.20001"
   version="1.1"
   id="svg8"
   inkscape:version="0.92.4 (5da689c313, 2019-01-14)"
   sodipodi:docname="thigh.svg">
  <defs
     id="defs2">
    <marker
       style="overflow:visible"
       refY="0.0"
       refX="0.0"
       orient="auto"
       id="DistanceX">
      <path
         id="path817"
         style="stroke:#000000; stroke-width:0.5"
         d="M 3,-3 L -3,3 M 0,-5 L  0,5" />
    </marker>
    <pattern
       y="0"
       x="0"
       width="8"
       patternUnits="userSpaceOnUse"
       id="Hatch"
       height="8">
      <path
         id="path820"
         stroke-width="0.25"
         stroke="#000000"
         linecap="square"
         d="M8 4 l-4,4" />
      <path
         id="path822"
         stroke-width="0.25"
         stroke="#000000"
         linecap="square"
         d="M6 2 l-4,4" />
      <path
         id="path824"
         stroke-width="0.25"
         stroke="#000000"
         linecap="square"
         d="M4 0 l-4,4" />
    </pattern>
    <symbol
       id="*Model_Space" />
    <symbol
       id="*Paper_Space" />
    <symbol
       id="*Paper_Space0" />
  </defs>
  <sodipodi:namedview
     id="base"
     pagecolor="#ffffff"
     bordercolor="#666666"
     borderopacity="1.0"
     inkscape:pageopacity="0.0"
     inkscape:pageshadow="2"
     inkscape:zoom="6.178549"
     inkscape:cx="499.9658"
     inkscape:cy="1504.2735"
     inkscape:document-units="mm"
     inkscape:current-layer="layer1"
     showgrid="false"
     units="in"
     inkscape:window-width="3360"
     inkscape:window-height="1975"
     inkscape:window-x="-13"
     inkscape:window-y="-13"
     inkscape:window-maximized="1" />
  <metadata
     id="metadata5">
    <rdf:RDF>
      <cc:Work
         rdf:about="">
        <dc:format>image/svg+xml</dc:format>
        <dc:type
           rdf:resource="http://purl.org/dc/dcmitype/StillImage" />
        <dc:title></dc:title>
      </cc:Work>
    </rdf:RDF>
  </metadata>
  <g
     inkscape:label="Layer 1"
     inkscape:groupmode="layer"
     id="layer1"
     transform="translate(0,160.20002)">
    <path
       inkscape:connector-curvature="0"
       d="m 92.282618,-125.58405 a 20,20 0 0 0 0,39.999996"
       style="fill:none;stroke:#000000;stroke-width:0.26458332;stroke-linecap:round"
       id="path832" />
    <path
       inkscape:connector-curvature="0"
       d="m 172.28262,-85.584054 a 20,20 0 0 0 0,-39.999996"
       style="fill:none;stroke:#000000;stroke-width:0.26458332;stroke-linecap:round"
       id="path834" />
    <path
       inkscape:connector-curvature="0"
       d="m 94.282616,-105.58404 a 2,2 0 1 0 -4,0 2,2 0 1 0 4,0 z"
       style="fill:none;stroke:#000000;stroke-width:0.26458332;stroke-linecap:round"
       id="path836" />
    <path
       inkscape:connector-curvature="0"
       d="m 100.53262,-105.58404 a 0.7500015,0.7500015 0 1 0 -1.500003,0 0.7500015,0.7500015 0 1 0 1.500003,0 z"
       style="fill:none;stroke:#000000;stroke-width:0.26458332;stroke-linecap:round"
       id="path838" />
    <path
       inkscape:connector-curvature="0"
       d="m 127.53262,-110.58406 a 1.25,1.25 0 1 0 -2.5,0 1.25,1.25 0 1 0 2.5,0 z"
       style="fill:none;stroke:#000000;stroke-width:0.26458332;stroke-linecap:round"
       id="path840" />
    <path
       inkscape:connector-curvature="0"
       d="m 127.53262,-100.58405 a 1.25,1.25 0 1 0 -2.5,0 1.25,1.25 0 1 0 2.5,0 z"
       style="fill:none;stroke:#000000;stroke-width:0.26458332;stroke-linecap:round"
       id="path842" />
    <path
       inkscape:connector-curvature="0"
       d="m 178.53262,-110.58406 a 1.2500001,1.2500001 0 1 0 -2.5,0 1.2500001,1.2500001 0 1 0 2.5,0 z"
       style="fill:none;stroke:#000000;stroke-width:0.26458332;stroke-linecap:round"
       id="path844" />
    <path
       inkscape:connector-curvature="0"
       d="m 178.53262,-100.58405 a 1.2500001,1.2500001 0 1 0 -2.5,0 1.2500001,1.2500001 0 1 0 2.5,0 z"
       style="fill:none;stroke:#000000;stroke-width:0.26458332;stroke-linecap:round"
       id="path846" />
    <path
       inkscape:connector-curvature="0"
       d="m 85.532618,-105.58404 a 0.75000008,0.75000008 0 1 0 -1.5,0 0.75000008,0.75000008 0 1 0 1.5,0 z"
       style="fill:none;stroke:#000000;stroke-width:0.26458332;stroke-linecap:round"
       id="path848" />
    <path
       inkscape:connector-curvature="0"
       d="m 93.032616,-113.08405 a 0.75000008,0.75000008 0 1 0 -1.499999,0 0.75000008,0.75000008 0 1 0 1.499999,0 z"
       style="fill:none;stroke:#000000;stroke-width:0.26458332;stroke-linecap:round"
       id="path850" />
    <path
       inkscape:connector-curvature="0"
       d="m 93.032616,-98.084055 a 0.75000008,0.75000008 0 1 0 -1.499999,0 0.75000008,0.75000008 0 1 0 1.499999,0 z"
       style="fill:none;stroke:#000000;stroke-width:0.26458332;stroke-linecap:round"
       id="path852" />
    <path
       inkscape:connector-curvature="0"
       d="M 92.282618,-125.58405 H 172.28262"
       style="fill:none;stroke:#000000;stroke-width:0.26458332;stroke-linecap:round"
       id="path856" />
    <path
       inkscape:connector-curvature="0"
       d="M 92.282618,-85.584054 H 172.28262"
       style="fill:none;stroke:#000000;stroke-width:0.26458332;stroke-linecap:round"
       id="path858" />
    <path
       inkscape:connector-curvature="0"
       d="m 172.28262,-115.58405 h -41"
       style="fill:none;stroke:#000000;stroke-width:0.26458332;stroke-linecap:round"
       id="path860" />
    <path
       inkscape:connector-curvature="0"
       d="m 172.28262,-115.58405 v 20.000017"
       style="fill:none;stroke:#000000;stroke-width:0.26458332;stroke-linecap:round"
       id="path862" />
    <path
       inkscape:connector-curvature="0"
       d="m 172.28262,-95.584033 h -41"
       style="fill:none;stroke:#000000;stroke-width:0.26458332;stroke-linecap:round"
       id="path864" />
    <path
       inkscape:connector-curvature="0"
       d="m 131.28262,-115.58405 v 20.000017"
       style="fill:none;stroke:#000000;stroke-width:0.26458332;stroke-linecap:round"
       id="path866" />
    <flowRoot
       xml:space="preserve"
       id="flowRoot948"
       style="fill:black;fill-opacity:1;stroke:none;font-family:sans-serif;font-style:normal;font-weight:normal;font-size:40px;line-height:1.25;letter-spacing:0px;word-spacing:0px"><flowRegion
         id="flowRegion950"><rect
           id="rect952"
           width="277.88034"
           height="70.017097"
           x="252.71794"
           y="289.36752" /></flowRegion><flowPara
         id="flowPara954"></flowPara></flowRoot>  </g>
</svg>
